<?xml version="1.0" encoding="utf-8"?>
<!-- Generator: Adobe Illustrator 23.0.4, SVG Export Plug-In . SVG Version: 6.00 Build 0)  -->
<svg version="1.1" id="Layer_1" xmlns="http://www.w3.org/2000/svg" xmlns:xlink="http://www.w3.org/1999/xlink" x="0px" y="0px"
	 viewBox="0 0 44.4 50.6" style="enable-background:new 0 0 44.4 50.6;" xml:space="preserve">
<style type="text/css">
	.st0{fill:none;stroke:#020203;stroke-width:2;stroke-miterlimit:10;}
	.st1{fill:#020203;}
	.st2{fill:none;stroke:#020203;stroke-width:3;stroke-miterlimit:10;}
</style>
<path class="st0" d="M16.6,15.6c0.7-2.6,3.1-4.6,6-4.6s5.3,1.9,6,4.6h7.7C35.4,8.7,29.6,3.4,22.5,3.4c-7.1,0-12.9,5.3-13.7,12.1
	H16.6z"/>
<path class="st1" d="M29.9,20.1l-13.1,3.5v11.4c-0.4-0.3-0.9-0.4-1.5-0.4c-1.6,0-2.9,1.3-2.9,2.9c0,1.6,1.3,2.9,2.9,2.9
	s2.9-1.3,2.9-2.9V26.2l10.2-2.7v8.7c-0.4-0.3-0.9-0.4-1.5-0.4c-1.6,0-2.9,1.3-2.9,2.9c0,1.6,1.3,2.9,2.9,2.9c1.6,0,2.9-1.3,2.9-2.9
	V21.6V20.1z"/>
<rect x="3.8" y="15.6" class="st2" width="36.6" height="30.4"/>
</svg>
